# xmcd
#
# Track frame offsets:
#	150
#	13403
#	27176
#	41880
#	55775
#	69332
#	81591
#	97116
#	112695
#	122951
#	133390
#	142501
#	153651
#	165763
#	176258
#	194049
#	207653
#	222862
#
# Disc length: 3171 seconds
#
# Revision: 0
# Processed by: cddbd v1.5.2PL0 Copyright (c) Steve Scherf et al.
# Submitted via: EasyCDDAExtractor 16.0.8.2
#
DISCID=060c6112
DTITLE=Συλλογικός δίσκος - Oldies but goodies 10
DYEAR=2010
DGENRE=Ποικίλη
TTITLE0=Κουρούκλη Ζωή - Η τραμοντάνα [ελλ. απόδ. Αθ. Τσόγκας]
TTITLE1=The Idols - Σ' εκείνο το δρομάκι [ελλ. απόδ. Ρέττη Ζαλοκώστα]
TTITLE2=Ελπίδα - Και θέλω και δε θέλω [Σπ. Καρδάμης-Ν. Ελληναίος]
TTITLE3=Τζορντανέλλι Λάκης - Αγοράζω παλιά [ελλ. απόδ. Σέβη Τηλιακού]
TTITLE4=Χρυσός Τέρης - Πού - [ελλ. απόδ. Ν. Ελληναίος]
TTITLE5=Κουρούκλη Ζωή - Η αγάπη έτσι αρχινάει [ελλ. απόδ. Νότης Κύτταρης]
TTITLE6=Dave Caroll-Alissa-The Sing Sing Four - Το κορίτσι του Μάη [ελλ. απόδ.
TTITLE6=Σέβη Τηλιακού]
TTITLE7=The Idols - Hot love
TTITLE8=The Forminx - Somebody sent me love [Σωτ. Αρνής-Τ. Παπασταμάτης]
TTITLE9=Ρούσος Ντέμης-We five - Paperback writer
TTITLE10=Καπούγια Ζανέτ - La bambola
TTITLE11=Καπούγια Ζανέτ - Nessuno mi puo giudicare
TTITLE12=Καπούγια Ζανέτ - Vorrei andare lontano
TTITLE13=The Knacks - A little help from my friends
TTITLE14=Γιοβάννα - Aranjuez mon amour
TTITLE15=Χρυσός Τέρης - Δυό ρόδα του Απριλιού [ελλ. απόδ. Αθ. Τσόγκας]
TTITLE16=Καρύδας Κώστας - Tie a yellow ribbon round the ole oak tree
TTITLE17=Χρυσός Τέρης - Ύμνος στη χαρά [διασκ. Τάκης Αθηναίος, ελ.απ. Ρέττη Ζα
TTITLE17=λοκώστα]
EXTD=
EXTT0=
EXTT1=
EXTT2=
EXTT3=
EXTT4=
EXTT5=
EXTT6=
EXTT7=
EXTT8=
EXTT9=
EXTT10=
EXTT11=
EXTT12=
EXTT13=
EXTT14=
EXTT15=
EXTT16=
EXTT17=
PLAYORDER=
